<svg viewBox="0 0 512 512" class="fl-svg" style="transform: scale(0.5);"><svg xmlns="http://www.w3.org/2000/svg" width="512" height="512" style="" viewBox="0 0 512 512" data-bbox="79.3969233474832 119.73073266124112 347.93461636154643 271.3195416207689"><path transform="matrix(5.12, 0, 0, 5.12, 0, 0)" data-type="rect" data-x="0" data-y="0" data-width="100" data-height="100" d="M0 0H100 V100 H0 Z" fill="#ffffff"></path><path text="B" fill="#43d3e8" space="preserve" text-anchor="middle" offset="0.5" font-scale="contain" font-size="48" font-family="Open Sans" transform="matrix(10.548909332112386, 0, 0, 10.548909332112386, 352.24702422225, 418.78562374524785)" data-fl-textpath="" d="M-10.84078125 0L-10.84078125-34.27L-1.1607812499999994-34.27Q 5.659218750000001-34.27  8.709218750000002-32.23Q 11.74921875-30.19  11.74921875-25.78L 11.74921875-25.78Q 11.74921875-22.73  10.05921875-20.75Q 8.35921875-18.77  5.099218749999999-18.19L 5.099218749999999-18.19L 5.099218749999999-17.95Q 12.89921875-16.62  12.89921875-9.75L 12.89921875-9.75Q 12.89921875-5.16  9.799218750000001-2.58Q 6.689218749999998 0  1.1092187500000001 0L 1.1092187500000001 0L-10.84078125 0ZM-6.850781250000001-30.82L-6.850781250000001-19.59L-0.2907812500000002-19.59Q 3.9292187500000004-19.59  5.779218749999998-20.92Q 7.62921875-22.24  7.62921875-25.38L 7.62921875-25.38Q 7.62921875-28.27  5.569218750000001-29.54Q 3.4992187500000007-30.82 -1.0007812499999993-30.82L-1.0007812499999993-30.82L-6.850781250000001-30.82ZM-0.030781250000000426-16.22L-6.850781250000001-16.22L-6.850781250000001-3.4L 0.28921874999999986-3.4Q 4.439218749999998-3.4  6.53921875-5Q 8.639218750000001-6.61  8.639218750000001-10.03L 8.639218750000001-10.03Q 8.639218750000001-13.22  6.489218749999999-14.72Q 4.349218749999999-16.22 -0.030781250000000426-16.22L-0.030781250000000426-16.22Z" stroke="rgba(0, 0, 0, 1)" stroke-width="0.8"></path><path text="R" fill="#008c44" space="preserve" text-anchor="middle" offset="0.5" font-scale="contain" font-size="48" font-family="Open Sans" transform="matrix(-10.548855842703418, -0.03375560788168145, -0.03375560788168145, 10.548855842703418, 171.51260778799286, 418.4419874051217)" data-fl-textpath="" d="M 1.0040624999999999-14.25L-6.135937500000001-14.25L-6.135937500000001 0L-10.1259375 0L-10.1259375-34.27L-0.7259375000000006-34.27Q 5.5740625-34.27  8.5940625-31.85Q 11.604062500000001-29.44  11.604062500000001-24.59L 11.604062500000001-24.59Q 11.604062500000001-17.79  4.714062500000001-15.4L 4.714062500000001-15.4L 14.014062500000001 0L 9.3040625 0L 1.0040624999999999-14.25ZM-6.135937500000001-30.77L-6.135937500000001-17.67L-0.6759374999999999-17.67Q 3.544062499999999-17.67  5.5040625-19.35Q 7.474062499999999-21.02  7.474062499999999-24.38L 7.474062499999999-24.38Q 7.474062499999999-27.77  5.474062499999999-29.27Q 3.4640625000000007-30.77 -0.9559374999999992-30.77L-0.9559374999999992-30.77L-6.135937500000001-30.77Z" stroke="#000000" stroke-width="0.8"></path><path text="ru4ert.com" fill="#000000" space="preserve" text-anchor="middle" offset="0.5" font-scale="contain" font-size="48" font-family="Open Sans" transform="matrix(1, 0, 0, 1, 254.43766021728516, 466.1745034240372)" data-fl-textpath="" d="M-108.7771875-26.16L-108.7771875-26.16Q-107.0671875-26.16 -105.7071875-25.88L-105.7071875-25.88L-106.2371875-22.27Q-107.8371875-22.62 -109.0571875-22.62L-109.0571875-22.62Q-112.1671875-22.62 -114.3871875-20.09Q-116.5971875-17.55 -116.5971875-13.78L-116.5971875-13.78L-116.5971875 0L-120.4871875 0L-120.4871875-25.69L-117.2771875-25.69L-116.8371875-20.93L-116.6471875-20.93Q-115.2171875-23.44 -113.2071875-24.8Q-111.1871875-26.16 -108.7771875-26.16ZM-101.1834375-25.69L-97.2434375-25.69L-97.2434375-9.02Q-97.2434375-5.88 -95.81343749999999-4.34Q-94.3834375-2.79 -91.3334375-2.79L-91.3334375-2.79Q-87.3034375-2.79 -85.4434375-4.99Q-83.5734375-7.2 -83.5734375-12.19L-83.5734375-12.19L-83.5734375-25.69L-79.6834375-25.69L-79.6834375 0L-82.8934375 0L-83.4634375-3.45L-83.6734375-3.45Q-84.8634375-1.55 -86.98343750000001-0.54Q-89.1134375 0.47 -91.8234375 0.47L-91.8234375 0.47Q-96.5134375 0.47 -98.8434375-1.76Q-101.1834375-3.98 -101.1834375-8.88L-101.1834375-8.88L-101.1834375-25.69ZM-49.082499999999996-11.41L-49.082499999999996-7.88L-54.1625-7.88L-54.1625 0L-57.8925 0L-57.8925-7.88L-74.5525-7.88L-74.5525-11.27L-58.292500000000004-34.45L-54.1625-34.45L-54.1625-11.41L-49.082499999999996-11.41ZM-70.6625-11.41L-57.8925-11.41L-57.8925-22.8Q-57.8925-26.16 -57.6525-30.38L-57.6525-30.38L-57.8425-30.38Q-58.9725-28.13 -59.9525-26.65L-59.9525-26.65L-70.6625-11.41ZM-33.137187499999996 0.47L-33.137187499999996 0.47Q-38.8371875 0.47 -42.1271875-3Q-45.4171875-6.47 -45.4171875-12.63L-45.4171875-12.63Q-45.4171875-18.84 -42.3671875-22.5Q-39.3071875-26.16 -34.1471875-26.16L-34.1471875-26.16Q-29.3171875-26.16 -26.5071875-22.98Q-23.6971875-19.8 -23.6971875-14.6L-23.6971875-14.6L-23.6971875-12.14L-41.387187499999996-12.14Q-41.2771875-7.62 -39.1071875-5.27Q-36.9371875-2.93 -32.9971875-2.93L-32.9971875-2.93Q-28.8471875-2.93 -24.7971875-4.66L-24.7971875-4.66L-24.7971875-1.2Q-26.8571875-0.3 -28.6971875 0.08Q-30.5371875 0.47 -33.137187499999996 0.47ZM-34.1971875-22.9L-34.1971875-22.9Q-37.2871875-22.9 -39.1271875-20.88Q-40.9671875-18.87 -41.2971875-15.3L-41.2971875-15.3L-27.8671875-15.3Q-27.8671875-18.98 -29.5071875-20.94Q-31.1471875-22.9 -34.1971875-22.9ZM-5.3475-26.16L-5.3475-26.16Q-3.6374999999999993-26.16 -2.2775-25.88L-2.2775-25.88L-2.807500000000001-22.27Q-4.407499999999999-22.62 -5.6274999999999995-22.62L-5.6274999999999995-22.62Q-8.7375-22.62 -10.9575-20.09Q-13.1675-17.55 -13.1675-13.78L-13.1675-13.78L-13.1675 0L-17.0575 0L-17.0575-25.69L-13.8475-25.69L-13.407499999999999-20.93L-13.217500000000001-20.93Q-11.7875-23.44 -9.7775-24.8Q-7.7575-26.16 -5.3475-26.16ZM 10.82625-2.74L 10.82625-2.74Q 11.85625-2.74  12.81625-2.89Q 13.78625-3.05  14.34625-3.21L 14.34625-3.21L 14.34625-0.23Q 13.70625 0.07  12.47625 0.27Q 11.24625 0.47  10.26625 0.47L 10.26625 0.47Q 2.81625 0.47  2.81625-7.38L 2.81625-7.38L 2.81625-22.66L-0.86375-22.66L-0.86375-24.54L 2.81625-26.16L 4.45625-31.64L 6.706250000000001-31.64L 6.706250000000001-25.69L 14.15625-25.69L 14.15625-22.66L 6.706250000000001-22.66L 6.706250000000001-7.55Q 6.706250000000001-5.23  7.80625-3.98Q 8.90625-2.74  10.82625-2.74ZM 18.9115625-2.48L 18.9115625-2.48Q 18.9115625-4.05  19.6315625-4.86Q 20.341562500000002-5.67  21.6815625-5.67L 21.6815625-5.67Q 23.0415625-5.67  23.8015625-4.86Q 24.5615625-4.05  24.5615625-2.48L 24.5615625-2.48Q 24.5615625-0.96  23.791562499999998-0.14Q 23.0115625 0.68  21.6815625 0.68L 21.6815625 0.68Q 20.4815625 0.68  19.7015625-0.06Q 18.9115625-0.8  18.9115625-2.48ZM 42.515 0.47L 42.515 0.47Q 36.935 0.47  33.875-2.96Q 30.825-6.4  30.825-12.68L 30.825-12.68Q 30.825-19.13  33.925-22.64Q 37.035-26.16  42.775-26.16L 42.775-26.16Q 44.625-26.16  46.475-25.76Q 48.325-25.36  49.385000000000005-24.82L 49.385000000000005-24.82L 48.185-21.52Q 46.894999999999996-22.03  45.375-22.37Q 43.855000000000004-22.71  42.675-22.71L 42.675-22.71Q 34.855000000000004-22.71  34.855000000000004-12.73L 34.855000000000004-12.73Q 34.855000000000004-7.99  36.765-5.46Q 38.675-2.93  42.425-2.93L 42.425-2.93Q 45.635000000000005-2.93  49.004999999999995-4.31L 49.004999999999995-4.31L 49.004999999999995-0.87Q 46.425 0.47  42.515 0.47ZM 77.2765625-12.87L 77.2765625-12.87Q 77.2765625-6.59  74.1065625-3.06Q 70.9465625 0.47  65.3665625 0.47L 65.3665625 0.47Q 61.9265625 0.47  59.246562499999996-1.15Q 56.5765625-2.77  55.1265625-5.79Q 53.6765625-8.81  53.6765625-12.87L 53.6765625-12.87Q 53.6765625-19.15  56.8165625-22.65Q 59.956562500000004-26.16  65.5265625-26.16L 65.5265625-26.16Q 70.9265625-26.16  74.0965625-22.57Q 77.2765625-18.98  77.2765625-12.87ZM 57.706562500000004-12.87L 57.706562500000004-12.87Q 57.706562500000004-7.95  59.6765625-5.37Q 61.6365625-2.79  65.4565625-2.79L 65.4565625-2.79Q 69.2765625-2.79  71.26656249999999-5.36Q 73.2465625-7.92  73.2465625-12.87L 73.2465625-12.87Q 73.2465625-17.77  71.26656249999999-20.31Q 69.2765625-22.85  65.4165625-22.85L 65.4165625-22.85Q 61.5965625-22.85  59.6465625-20.34Q 57.706562500000004-17.84  57.706562500000004-12.87ZM 120.72874999999999 0L 116.83875 0L 116.83875-16.71Q 116.83875-19.78  115.51875-21.32Q 114.20875000000001-22.85  111.44875-22.85L 111.44875-22.85Q 107.80875-22.85  106.07875-20.77Q 104.34875-18.68  104.34875-14.34L 104.34875-14.34L 104.34875 0L 100.44875 0L 100.44875-16.71Q 100.44875-19.78  99.13875-21.32Q 97.82875-22.85  95.03875-22.85L 95.03875-22.85Q 91.37875-22.85  89.67875000000001-20.66Q 87.98875-18.47  87.98875-13.48L 87.98875-13.48L 87.98875 0L 84.09875 0L 84.09875-25.69L 87.25875-25.69L 87.88875-22.17L 88.07875-22.17Q 89.17875000000001-24.05  91.17875000000001-25.1Q 93.18875-26.16  95.66875-26.16L 95.66875-26.16Q 101.69875-26.16  103.54875-21.8L 103.54875-21.8L 103.73875-21.8Q 104.87875-23.81  107.05875-24.98Q 109.23875-26.16  112.02875-26.16L 112.02875-26.16Q 116.38875-26.16  118.55875-23.92Q 120.72874999999999-21.68  120.72874999999999-16.76L 120.72874999999999-16.76L 120.72874999999999 0Z"></path><path transform="matrix(1.6452043388317577, 0, 0, 1.6452043388317577, 173.73978305841212, 155.36150018193555)" data-type="circle" data-cx="50" data-cy="50" data-r="50" d="M50,50m-50,0a50,50 0 1, 0 100,0a50,50 0 1, 0 -100,0" fill="rgba(255, 255, 255, 0.96)" stroke="#000000"></path><g transform="matrix(0.64, 0, 0, 0.64, 192.0003192138672, 174.03005992504842)"><path fill="#43D3E8" transform="matrix(1, 0, 0, 1, 0, 0)" data-type="circle" data-cx="99.999" data-cy="93.624" data-r="56.895" d="M99.999,93.624m-56.895,0a56.895,56.895 0 1, 0 113.79,0a56.895,56.895 0 1, 0 -113.79,0"></path><path fill="#FFFFFF" transform="matrix(1, 0, 0, 1, 0, 0)" data-type="circle" data-cx="99.999" data-cy="93.624" data-r="16.353" d="M99.999,93.624m-16.353,0a16.353,16.353 0 1, 0 32.706,0a16.353,16.353 0 1, 0 -32.706,0"></path><path d="M114.063 180.829l-5.019-5.168c6.357-6.172 11.956-18.192 15.762-33.844     c2.206-9.023 3.755-18.924 4.605-29.428c0.498-6.065 0.751-12.378 0.751-18.766c0-6.389-0.253-12.7-0.751-18.762     c-0.851-10.509-2.399-20.408-4.605-29.427c-5.653-23.228-15.39-38.233-24.804-38.233c-9.557 0-19.065 14.65-24.82 38.232     c-2.211 9.046-3.755 18.944-4.59 29.419c-0.499 6.071-0.752 12.382-0.752 18.771c0 6.387 0.253 12.7 0.752 18.76     c0.834 10.484 2.379 20.385 4.59 29.429c2.103 8.611 4.715 16.073 7.76 22.179l-6.442 3.215     c-3.286-6.584-6.083-14.551-8.314-23.683c-2.302-9.419-3.907-19.699-4.772-30.559c-0.515-6.247-0.775-12.757-0.775-19.341     c0-6.584 0.26-13.097 0.775-19.352c0.865-10.85 2.47-21.129 4.772-30.547C74.967 15.938 86.564 0 100.003 0     c13.445 0 25.037 15.938 31.801 43.727c2.295 9.387 3.904 19.665 4.785 30.549c0.515 6.251 0.776 12.764 0.776 19.348     c0 6.584-0.262 13.094-0.776 19.351c-0.881 10.88-2.49 21.159-4.785 30.549C127.623 160.718 121.487 173.619 114.063 180.829z" fill="#242D3C" transform="matrix(1, 0, 0, 1, 0, 0)"></path><path d="M156.242 150.934c-8.167 0-17.924-1.593-28.945-4.808c-9.224-2.688-18.926-6.435-28.838-11.137     c-5.703-2.705-11.47-5.734-17.138-9.008c-5.652-3.265-11.157-6.745-16.363-10.34c-9.026-6.24-17.123-12.772-24.065-19.417     c-12.831-12.266-20.939-24.04-23.445-34.048l6.988-1.75C26.578 68.99 34.19 79.854 45.87 91.02     c6.67 6.383 14.47 12.673 23.182 18.697c5.045 3.485 10.386 6.858 15.87 10.029c5.501 3.175 11.094 6.114 16.624 8.736     c9.567 4.539 18.91 8.148 27.768 10.729c23.303 6.802 40.748 5.891 45.524-2.378c4.711-8.152-3.415-24.092-20.702-40.605     c-6.729-6.439-14.527-12.73-23.178-18.697c-5.067-3.497-10.406-6.87-15.875-10.028c-5.279-3.051-10.659-5.888-15.999-8.441     l-0.639-0.297c-9.571-4.539-18.912-8.15-27.767-10.728c-8.516-2.484-16.286-3.956-23.095-4.373l0.442-7.188     c7.342 0.452 15.643 2.014 24.669 4.646c8.991 2.619 18.442 6.248 28.102 10.789h0.002l0.749 0.348     c5.72 2.712 11.485 5.743 17.14 9.009c5.633 3.252 11.139 6.732 16.361 10.336c8.965 6.183 17.063 12.717 24.065 19.419     c20.685 19.757 28.688 37.77 21.959 49.415C177.051 147.396 168.415 150.934 156.242 150.934z" fill="#242D3C" transform="matrix(1, 0, 0, 1, 0, 0)"></path><path d="M43.749 150.934c-12.174 0-20.81-3.536-24.831-10.496c-6.725-11.639 1.286-29.651 21.977-49.417     c6.943-6.645 15.039-13.178 24.061-19.415C70.18 68 75.686 64.52 81.32 61.266c5.694-3.29 11.457-6.32 17.124-9.008l0.751-0.348     c9.655-4.541 19.107-8.168 28.103-10.789c17.019-4.965 31.262-6.093 41.188-3.262l-1.976 6.926     c-8.496-2.424-21.706-1.269-37.196 3.25c-8.858 2.58-18.201 6.189-27.767 10.728l-0.745 0.348     c-5.258 2.518-10.596 5.338-15.88 8.389c-5.468 3.159-10.809 6.532-15.873 10.029C60.342 83.55 52.544 89.84 45.871 96.225     c-17.296 16.522-25.426 32.462-20.717 40.608c4.774 8.269 22.219 9.18 45.522 2.378c8.883-2.586 18.23-6.196 27.782-10.729     c5.534-2.623 11.126-5.563 16.625-8.738c5.484-3.169 10.824-6.542 15.871-10.027c8.657-5.971 16.456-12.26 23.18-18.694     c6.387-6.096 11.545-12.081 15.332-17.796l6.003 3.978c-4.083 6.162-9.588 12.564-16.36 19.024     c-6.996 6.696-15.093 13.229-24.064 19.416c-5.203 3.592-10.707 7.072-16.358 10.336c-5.667 3.272-11.433 6.304-17.14 9.009     c-9.898 4.697-19.607 8.442-28.854 11.137C61.67 149.341 51.914 150.934 43.749 150.934z" fill="#242D3C" transform="matrix(1, 0, 0, 1, 0, 0)"></path><path d="M177.96 64.964c-9.017 0-16.351-7.337-16.351-16.354c0-9.018 7.334-16.354 16.351-16.354    c9.02 0 16.357 7.337 16.357 16.354C194.317 57.627 186.979 64.964 177.96 64.964z M177.96 39.458    c-5.044 0-9.148 4.106-9.148 9.153s4.104 9.151 9.148 9.151c5.048 0 9.155-4.104 9.155-9.151S183.008 39.458 177.96 39.458z" fill="#242D3C" transform="matrix(1, 0, 0, 1, 0, 0)"></path><path d="M177.96 64.964c-9.017 0-16.351-7.337-16.351-16.354c0-9.018 7.334-16.354 16.351-16.354    c9.02 0 16.357 7.337 16.357 16.354C194.317 57.627 186.979 64.964 177.96 64.964z M177.96 39.458    c-5.044 0-9.148 4.106-9.148 9.153s4.104 9.151 9.148 9.151c5.048 0 9.155-4.104 9.155-9.151S183.008 39.458 177.96 39.458z" fill="#242D3C" transform="matrix(1, 0, 0, 1, 0, 0)"></path><path d="M22.033 64.966c-9.015 0-16.351-7.337-16.351-16.355c0-9.016 7.335-16.353 16.351-16.353    c9.019 0 16.357 7.337 16.357 16.353C38.391 57.629 31.052 64.966 22.033 64.966z M22.033 39.459    c-5.045 0-9.148 4.104-9.148 9.151s4.103 9.153 9.148 9.153c5.048 0 9.156-4.106 9.156-9.153S27.082 39.459 22.033 39.459z" fill="#242D3C" transform="matrix(1, 0, 0, 1, 0, 0)"></path><path d="M99.997 200c-9.016 0-16.35-7.336-16.35-16.354s7.334-16.354 16.35-16.354    c9.02 0 16.357 7.337 16.357 16.354S109.017 200 99.997 200z M99.997 174.494c-5.044 0-9.148 4.105-9.148 9.152    c0 5.046 4.104 9.151 9.148 9.151c5.049 0 9.155-4.105 9.155-9.151C109.152 178.6 105.046 174.494 99.997 174.494z" fill="#242D3C" transform="matrix(1, 0, 0, 1, 0, 0)"></path></g></svg></svg>